<svg xmlns="http://www.w3.org/2000/svg" viewBox="0 0 92.24 62.3"><defs><style>.cls-1{fill:#6f7d13;}</style></defs><g id="Layer_2" data-name="Layer 2"><g id="Layer_1-2" data-name="Layer 1"><path class="cls-1" d="M76.22,61.73a1.33,1.33,0,0,0,.28-1.13l-1.23-6.87h0l-.72-3.82h2.26a15.78,15.78,0,0,0,11-4.78,15.13,15.13,0,0,0,4.48-11.05,15.39,15.39,0,0,0-4.63-10.94,15.8,15.8,0,0,0-11-4.56l-8.06,0-.43-2.26a1.38,1.38,0,0,0-1.42-1.13H63.61l0-4.52a10.67,10.67,0,0,0-3.21-7.56A10.85,10.85,0,0,0,52.8,0a10.65,10.65,0,0,0-7.55,3.21,10.86,10.86,0,0,0-3.16,7.58l0,4.52-6.08,0a1.38,1.38,0,0,0-1.34,1.21l-1.3,11.81L17.82,24.17l-1.6-12.58a1.36,1.36,0,0,0-1.07-1.2,1.42,1.42,0,0,0-1.48.64L.24,31.37a1.4,1.4,0,0,0,0,1.56l.21.21a1.41,1.41,0,0,0,1.21.35L13,31.89,31.68,44.41,29.83,60.75a1.21,1.21,0,0,0,.36,1.06l.07.07a1.28,1.28,0,0,0,1,.42h44A2,2,0,0,0,76.22,61.73Zm.49-40.25a12.71,12.71,0,0,1,9.06,21.68,13.43,13.43,0,0,1-9,3.92H74L69.14,21.44ZM45,10.85a7.92,7.92,0,0,1,15.84-.06l0,4.53L45,15.37ZM32.65,59.47l.48-4,39.53-.07.72,4Z"/></g></g></svg>