<svg xmlns="http://www.w3.org/2000/svg" viewBox="0 0 80 68.56"><defs><style>.cls-1{fill:#6f7d13;}</style></defs><g id="Layer_2" data-name="Layer 2"><g id="Layer_1-2" data-name="Layer 1"><path class="cls-1" d="M80,35.3a1.38,1.38,0,0,0-.59-1l-5.65-3.87h0l-3.15-2.16,1.63-1.64,0,0a15.79,15.79,0,0,0,4.42-11.06,15.53,15.53,0,0,0-26.5-11l-5.75,5.75L42.48,9a1.39,1.39,0,0,0-1.77.16l-2.22,2.23L35.28,8.15A10.7,10.7,0,0,0,20.15,23.28l3.21,3.21-4.3,4.29A1.4,1.4,0,0,0,19,32.63L26.33,42l-14,8-10-7.8A1.38,1.38,0,0,0,0,43.51L4.81,67.45a1.4,1.4,0,0,0,1.06,1.08,1.53,1.53,0,0,0,.3,0A1.41,1.41,0,0,0,7.29,68l6.86-9.15,22.1-4.32L46.41,67.4a1.34,1.34,0,0,0,1,.53h.08a1.39,1.39,0,0,0,1-.4L79.59,36.41A1.35,1.35,0,0,0,80,35.3ZM52.13,6.51a12.75,12.75,0,0,1,21.75,9,13,13,0,0,1-3.63,9.12l-2,2L46.74,11.89Zm-30,14.8a7.92,7.92,0,0,1,11.2-11.2l3.2,3.21-11.2,11.2Zm25.5,43.15L45.13,61.3l28-27.94,3.31,2.27Z"/></g></g></svg>