<?xml version="1.0" standalone="no"?>
<!DOCTYPE svg PUBLIC "-//W3C//DTD SVG 20010904//EN"
 "http://www.w3.org/TR/2001/REC-SVG-20010904/DTD/svg10.dtd">
<svg version="1.0" xmlns="http://www.w3.org/2000/svg"
 width="300.000000pt" height="300.000000pt" viewBox="0 0 300.000000 300.000000"
 preserveAspectRatio="xMidYMid meet">
<metadata>
Created by potrace 1.11, written by Peter Selinger 2001-2013
</metadata>
<g transform="translate(0.000000,300.000000) scale(0.100000,-0.100000)"
fill="#000000" stroke="none">
<path d="M1754 2290 c-11 -4 -29 -25 -39 -47 -10 -21 -47 -69 -83 -108 -51
-55 -82 -78 -141 -106 -106 -49 -203 -112 -292 -189 -41 -36 -104 -81 -138
-100 -34 -19 -90 -55 -124 -80 -34 -25 -106 -67 -161 -95 -57 -29 -108 -62
-120 -78 -19 -26 -19 -30 -6 -70 14 -38 19 -43 65 -56 67 -19 571 -22 630 -4
22 7 83 44 135 82 125 93 193 132 309 179 210 86 376 132 475 132 71 0 246
-29 299 -49 42 -16 76 -13 123 10 59 28 99 106 92 179 -5 52 -44 120 -83 146
-16 11 -105 14 -434 15 l-413 1 20 21 c69 76 52 177 -34 213 -38 16 -50 16
-80 4z m-379 -506 c30 -19 66 -88 59 -110 -20 -61 -31 -77 -69 -99 -51 -30
-77 -31 -121 -4 -47 29 -64 57 -64 104 0 103 110 165 195 109z"/>
<path d="M180 1353 c0 -28 25 -87 47 -113 30 -36 66 -57 108 -61 l30 -4 1 70
c1 121 6 115 -97 115 -49 0 -89 -3 -89 -7z"/>
<path d="M1075 1081 c-19 -8 -19 -9 5 -14 14 -3 52 -8 85 -11 91 -9 275 -67
336 -108 30 -19 79 -48 110 -65 l56 -31 42 46 c24 26 51 63 62 84 10 20 30 45
44 56 14 11 25 24 25 28 0 5 -132 10 -293 11 -160 2 -328 5 -372 8 -44 2 -89
0 -100 -4z"/>
</g>
</svg>
